<svg version="1.1" xmlns="http://www.w3.org/2000/svg" viewBox="-2340.3752504664085 -1579.264064025879 9994.775518258157 2388.480093383789"><desc>Created with Snap</desc><defs></defs><g><g transform="matrix(23.3502,0,0,23.3502,-2325.3157,-1564.2337)"><g><path d="M74.265,60.41c0.964,2.929,1.401,5.966,1.261,9.015c2.584-0.989,5.013-2.49,7.095-4.572c0.244-0.244,0.41-0.527,0.637-0.78   c0.018-0.341,0.105-0.659,0.105-1.004c0-2.924-0.646-5.691-1.764-8.203C79.522,57.139,77.045,59.022,74.265,60.41z" fill="#143d59" style=""></path><path d="M54.863,81.605c2.509,1.112,5.276,1.759,8.2,1.759c0.349,0,0.664-0.085,1.004-0.103c0.253-0.227,0.541-0.393,0.781-0.637   c2.08-2.085,3.585-4.516,4.572-7.104c-3.049,0.14-6.086-0.292-9.01-1.257C59.022,77.049,57.137,79.528,54.863,81.605z" fill="#143d59" style=""></path><path d="M40.588,74.265c-2.925,0.965-5.965,1.396-9.013,1.257c0.988,2.588,2.49,5.023,4.573,7.104   c0.242,0.244,0.528,0.41,0.779,0.637c0.339,0.018,0.661,0.103,1.003,0.103c2.926,0,5.691-0.646,8.202-1.759   C43.861,79.528,41.976,77.049,40.588,74.265z" fill="#143d59" style=""></path><path d="M26.731,60.41c-2.781-1.388-5.26-3.271-7.337-5.545c-1.112,2.512-1.758,5.279-1.758,8.203c0,0.345,0.085,0.663,0.1,1.004   c0.229,0.253,0.395,0.536,0.639,0.78c2.082,2.082,4.515,3.583,7.098,4.572C25.333,66.376,25.767,63.339,26.731,60.41z" fill="#143d59" style=""></path><path d="M26.731,40.592c-0.964-2.929-1.398-5.966-1.259-9.016c-2.583,0.989-5.014,2.491-7.098,4.572   c-0.244,0.245-0.41,0.528-0.639,0.781c-0.015,0.341-0.1,0.659-0.1,1.004c0,2.924,0.646,5.69,1.76,8.205   C21.471,43.863,23.95,41.979,26.731,40.592z" fill="#143d59" style=""></path><path d="M46.132,19.397c-2.511-1.114-5.275-1.76-8.202-1.76c-0.342,0-0.664,0.084-1.003,0.102   c-0.251,0.228-0.537,0.393-0.779,0.638c-2.083,2.08-3.585,4.515-4.573,7.103c3.048-0.14,6.088,0.293,9.013,1.257   C41.976,23.952,43.861,21.475,46.132,19.397z" fill="#143d59" style=""></path><path d="M60.41,26.736c2.924-0.964,5.961-1.396,9.01-1.257c-0.99-2.588-2.492-5.017-4.572-7.103   c-0.24-0.245-0.528-0.41-0.781-0.638c-0.34-0.018-0.659-0.102-1.004-0.102c-2.924,0-5.691,0.646-8.2,1.76   C57.137,21.475,59.022,23.952,60.41,26.736z" fill="#143d59" style=""></path><path d="M82.621,36.148c-2.082-2.081-4.511-3.583-7.095-4.572c0.14,3.05-0.297,6.087-1.261,9.016   c2.78,1.388,5.257,3.271,7.334,5.547c1.117-2.515,1.764-5.281,1.764-8.205c0-0.345-0.088-0.663-0.105-1.004   C83.031,36.677,82.865,36.394,82.621,36.148z" fill="#143d59" style=""></path><path d="M58.228,63.068c0-0.166-0.048-0.319-0.052-0.484c-1.061-0.21-2.09-0.498-3.099-0.834c-0.462,0.921-0.89,1.851-1.469,2.719   c0.113,0.122,0.19,0.267,0.309,0.384c1.143,1.14,2.404,2.069,3.718,2.881C57.993,66.228,58.228,64.683,58.228,63.068z" fill="#143d59" style=""></path><path d="M43.362,67.733c1.313-0.812,2.574-1.741,3.715-2.881c0.12-0.117,0.199-0.262,0.312-0.384   c-0.581-0.868-1.008-1.798-1.471-2.719c-1.008,0.336-2.038,0.624-3.1,0.834c-0.002,0.165-0.048,0.318-0.048,0.484   C42.771,64.683,43.006,66.228,43.362,67.733z" fill="#143d59" style=""></path><path d="M36.148,53.922c-1.139,1.14-2.068,2.4-2.88,3.717c1.503,0.355,3.051,0.59,4.663,0.59c0.166,0,0.318-0.044,0.484-0.048   c0.209-1.06,0.495-2.094,0.833-3.102c-0.918-0.463-1.848-0.886-2.716-1.471C36.411,53.726,36.269,53.805,36.148,53.922z" fill="#143d59" style=""></path><path d="M38.415,42.821c-0.166-0.006-0.319-0.05-0.484-0.05c-1.612,0-3.159,0.236-4.663,0.591c0.812,1.318,1.739,2.578,2.88,3.717   c0.12,0.118,0.262,0.196,0.384,0.314c0.868-0.583,1.797-1.008,2.716-1.471C38.91,44.916,38.625,43.881,38.415,42.821z" fill="#143d59" style=""></path><path d="M42.771,37.934c0,0.166,0.046,0.318,0.048,0.484c1.062,0.21,2.092,0.498,3.1,0.834c0.462-0.921,0.89-1.851,1.471-2.719   c-0.113-0.123-0.192-0.267-0.312-0.385c-1.141-1.139-2.402-2.066-3.715-2.879C43.006,34.774,42.771,36.319,42.771,37.934z" fill="#143d59" style=""></path><path d="M57.635,33.27c-1.314,0.812-2.575,1.74-3.718,2.879c-0.118,0.118-0.195,0.262-0.309,0.385   c0.579,0.868,1.007,1.798,1.469,2.719c1.008-0.336,2.038-0.624,3.099-0.834c0.004-0.166,0.052-0.318,0.052-0.484   C58.228,36.319,57.993,34.774,57.635,33.27z" fill="#143d59" style=""></path><path d="M63.063,42.771c-0.166,0-0.314,0.044-0.48,0.05c-0.209,1.06-0.498,2.095-0.838,3.102c0.921,0.463,1.851,0.888,2.719,1.471   c0.122-0.118,0.266-0.196,0.384-0.314c1.139-1.139,2.067-2.398,2.883-3.717C66.226,43.008,64.678,42.771,63.063,42.771z" fill="#143d59" style=""></path><path d="M48.074,49.493c-0.035,0.676-0.035,1.339,0,2.012c0.452,0.502,0.921,0.969,1.42,1.423c0.671,0.034,1.335,0.034,2.007,0   c0.5-0.454,0.972-0.926,1.423-1.423c0.035-0.673,0.033-1.336,0-2.008c-0.451-0.502-0.921-0.969-1.42-1.423   c-0.673-0.035-1.34-0.035-2.012,0C48.995,48.528,48.524,48.995,48.074,49.493z" fill="#143d59" style=""></path><path d="M64.464,53.608c-0.868,0.585-1.798,1.008-2.719,1.471c0.34,1.008,0.628,2.042,0.838,3.102   c0.166,0.004,0.314,0.048,0.48,0.048c1.615,0,3.163-0.234,4.668-0.59c-0.816-1.316-1.745-2.577-2.883-3.717   C64.73,53.805,64.586,53.726,64.464,53.608z" fill="#143d59" style=""></path><path d="M72.271,55.926c2.583-1.327,4.827-3.173,6.615-5.425c-1.788-2.252-4.031-4.098-6.615-5.425   c-1.091,1.929-2.357,3.784-3.998,5.425C69.914,52.142,71.179,53.996,72.271,55.926z" fill="#143d59" style=""></path><path d="M62.138,31.245c0.585,2.133,0.925,4.367,0.925,6.688c2.322,0,4.555,0.341,6.689,0.93c0.868-2.745,1.143-5.603,0.82-8.436   C67.74,30.104,64.879,30.375,62.138,31.245z" fill="#143d59" style=""></path><path d="M50.498,22.11c-2.253,1.794-4.099,4.033-5.424,6.616c1.927,1.096,3.782,2.361,5.424,4.002   c1.644-1.641,3.498-2.906,5.426-4.002C54.597,26.144,52.752,23.904,50.498,22.11z" fill="#143d59" style=""></path><path d="M37.931,37.934c0-2.321,0.34-4.556,0.927-6.688c-2.74-0.87-5.601-1.141-8.432-0.817c-0.323,2.833-0.05,5.69,0.817,8.436   C33.377,38.274,35.612,37.934,37.931,37.934z" fill="#143d59" style=""></path><path d="M22.108,50.501c1.794,2.252,4.034,4.098,6.618,5.425c1.091-1.93,2.356-3.784,3.999-5.425   c-1.643-1.641-2.908-3.496-4.001-5.425C26.143,46.403,23.902,48.249,22.108,50.501z" fill="#143d59" style=""></path><path d="M38.858,69.757c-0.587-2.133-0.927-4.367-0.927-6.688c-2.319,0-4.553-0.341-6.688-0.93   c-0.868,2.745-1.14,5.604-0.817,8.436C33.257,70.896,36.118,70.627,38.858,69.757z" fill="#143d59" style=""></path><path d="M50.498,78.891c2.255-1.793,4.1-4.032,5.426-6.616c-1.929-1.095-3.782-2.36-5.426-4c-1.642,1.64-3.497,2.905-5.424,4   C46.401,74.858,48.245,77.098,50.498,78.891z" fill="#143d59" style=""></path><path d="M63.063,63.068c0,2.321-0.34,4.556-0.925,6.688c2.741,0.87,5.602,1.139,8.435,0.817c0.323-2.832,0.048-5.695-0.82-8.436   C67.618,62.728,65.385,63.068,63.063,63.068z" fill="#143d59" style=""></path><path d="M87.425,44.026c-0.571,2.304-1.457,4.476-2.614,6.475c1.157,1.999,2.043,4.177,2.614,6.475   C88.844,52.771,88.844,48.231,87.425,44.026z" fill="#143d59" style=""></path><path d="M81.233,29.05c-1.981-4.041-5.244-7.301-9.286-9.282c1.249,2.063,2.147,4.268,2.745,6.541   C76.966,26.907,79.165,27.802,81.233,29.05z" fill="#143d59" style=""></path><path d="M56.971,13.576c-4.204-1.418-8.742-1.418-12.947,0c2.3,0.571,4.473,1.453,6.473,2.614   C52.5,15.029,54.671,14.147,56.971,13.576z" fill="#143d59" style=""></path><path d="M29.047,19.768c-4.042,1.981-7.301,5.241-9.284,9.282c2.066-1.248,4.268-2.143,6.541-2.741   C26.904,24.035,27.798,21.831,29.047,19.768z" fill="#143d59" style=""></path><path d="M13.571,56.973c0.574-2.3,1.458-4.473,2.616-6.472c-1.159-1.999-2.04-4.171-2.616-6.472   C12.158,48.231,12.158,52.771,13.571,56.973z" fill="#143d59" style=""></path><path d="M19.765,71.952c1.981,4.041,5.24,7.297,9.279,9.282c-1.248-2.068-2.141-4.269-2.741-6.542   C24.031,74.095,21.829,73.2,19.765,71.952z" fill="#143d59" style=""></path><path d="M44.024,87.426c4.205,1.418,8.746,1.418,12.947,0c-2.3-0.572-4.472-1.453-6.474-2.614   C48.498,85.973,46.324,86.854,44.024,87.426z" fill="#143d59" style=""></path><path d="M71.952,81.234c4.037-1.985,7.3-5.241,9.281-9.282c-2.068,1.248-4.267,2.143-6.541,2.74   C74.095,76.966,73.2,79.166,71.952,81.234z" fill="#143d59" style=""></path></g><desc>Created with Snap</desc><defs></defs></g><g><g transform="matrix(1.024,0,0,-1.024,0,0)"><path d="M271 -9Q208 -9 158 12Q108 34 79 72Q50 111 47 161L141 161Q145 120 179 94Q214 68 270 68Q322 68 352 91Q382 114 382 149Q382 185 350 202Q318 220 251 237Q190 253 151 269Q113 286 85 318Q58 351 58 404Q58 446 83 481Q108 516 154 536Q200 557 259 557Q350 557 406 511Q462 465 466 385L375 385Q372 428 340 454Q309 480 256 480Q207 480 178 459Q149 438 149 404Q149 377 166 359Q184 342 210 331Q237 321 284 308Q343 292 380 276Q417 261 443 230Q470 199 471 149Q471 104 446 68Q421 32 375 11Q330 -9 271 -9ZM1258 558Q1322 558 1372 531Q1422 505 1451 452Q1480 399 1480 323L1480 0L1390 0L1390 310Q1390 392 1349 435Q1309 479 1240 479Q1169 479 1127 433Q1085 388 1085 302L1085 0L995 0L995 310Q995 392 954 435Q914 479 845 479Q774 479 732 433Q690 388 690 302L690 0L599 0L599 548L690 548L690 469Q717 512 762 535Q808 558 863 558Q932 558 985 527Q1038 496 1064 436Q1087 494 1140 526Q1193 558 1258 558ZM1823 -9Q1760 -9 1710 12Q1660 34 1631 72Q1602 111 1599 161L1693 161Q1697 120 1731 94Q1766 68 1822 68Q1874 68 1904 91Q1934 114 1934 149Q1934 185 1902 202Q1870 220 1803 237Q1742 253 1703 269Q1665 286 1637 318Q1610 351 1610 404Q1610 446 1635 481Q1660 516 1706 536Q1752 557 1811 557Q1902 557 1958 511Q2014 465 2018 385L1927 385Q1924 428 1892 454Q1861 480 1808 480Q1759 480 1730 459Q1701 438 1701 404Q1701 377 1718 359Q1736 342 1762 331Q1789 321 1836 308Q1895 292 1932 276Q1969 261 1995 230Q2022 199 2023 149Q2023 104 1998 68Q1973 32 1927 11Q1882 -9 1823 -9ZM2132 405L2531 405L2531 328L2132 328L2132 405ZM2793 459Q2817 506 2861 532Q2906 558 2970 558L2970 464L2946 464Q2793 464 2793 298L2793 0L2702 0L2702 548L2793 548L2793 459ZM3575 295Q3575 269 3572 240L3134 240Q3139 159 3189 113Q3240 68 3312 68Q3371 68 3410 95Q3450 123 3466 169L3564 169Q3542 90 3476 40Q3410 -9 3312 -9Q3234 -9 3172 26Q3111 61 3076 125Q3041 190 3041 275Q3041 360 3075 424Q3109 488 3170 522Q3232 557 3312 557Q3390 557 3450 523Q3510 489 3542 429Q3575 370 3575 295ZM3481 314Q3481 366 3458 403Q3435 441 3395 460Q3356 480 3308 480Q3239 480 3190 436Q3142 392 3135 314L3481 314ZM4354 558Q4418 558 4468 531Q4518 505 4547 452Q4576 399 4576 323L4576 0L4486 0L4486 310Q4486 392 4445 435Q4405 479 4336 479Q4265 479 4223 433Q4181 388 4181 302L4181 0L4091 0L4091 310Q4091 392 4050 435Q4010 479 3941 479Q3870 479 3828 433Q3786 388 3786 302L3786 0L3695 0L3695 548L3786 548L3786 469Q3813 512 3858 535Q3904 558 3959 558Q4028 558 4081 527Q4134 496 4160 436Q4183 494 4236 526Q4289 558 4354 558ZM4772 637Q4746 637 4728 655Q4710 673 4710 699Q4710 725 4728 743Q4746 761 4772 761Q4797 761 4814 743Q4832 725 4832 699Q4832 673 4814 655Q4797 637 4772 637ZM4725 548L4816 548L4816 0L4725 0L4725 548ZM5238 558Q5338 558 5400 497Q5462 437 5462 323L5462 0L5372 0L5372 310Q5372 392 5331 435Q5290 479 5219 479Q5147 479 5104 434Q5062 389 5062 303L5062 0L4971 0L4971 548L5062 548L5062 470Q5089 512 5135 535Q5182 558 5238 558ZM5577 276Q5577 360 5611 423Q5645 487 5704 522Q5764 557 5838 557Q5902 557 5957 527Q6012 498 6041 450L6041 740L6133 740L6133 0L6041 0L6041 103Q6014 54 5961 22Q5908 -9 5837 -9Q5764 -9 5704 27Q5645 63 5611 128Q5577 193 5577 276ZM6041 275Q6041 337 6016 383Q5991 429 5948 453Q5906 478 5855 478Q5804 478 5762 454Q5720 430 5695 384Q5670 338 5670 276Q5670 213 5695 166Q5720 120 5762 95Q5804 71 5855 71Q5906 71 5948 95Q5991 120 6016 166Q6041 213 6041 275ZM6787 295Q6787 269 6784 240L6346 240Q6351 159 6401 113Q6452 68 6524 68Q6583 68 6622 95Q6662 123 6678 169L6776 169Q6754 90 6688 40Q6622 -9 6524 -9Q6446 -9 6384 26Q6323 61 6288 125Q6253 190 6253 275Q6253 360 6287 424Q6321 488 6382 522Q6444 557 6524 557Q6602 557 6662 523Q6722 489 6754 429Q6787 370 6787 295ZM6693 314Q6693 366 6670 403Q6647 441 6607 460Q6568 480 6520 480Q6451 480 6402 436Q6354 392 6347 314L6693 314ZM6998 459Q7022 506 7066 532Q7111 558 7175 558L7175 464L7151 464Q6998 464 6998 298L6998 0L6907 0L6907 548L6998 548L6998 459Z" fill="#143d59" style=""></path></g></g></g></svg>